# xmcd
#
# Track frame offsets:
#	150
#	19332
#	37455
#	53527
#	69090
#	85097
#	103992
#	124552
#	137042
#	155725
#	183980
#
# Disc length: 2739
#
# Revision: 3
# Processed by: cddbd v1.5.1PL0 Copyright (c) Steve Scherf et al.
# Submitted via: audiograbber 1.82.02
# Normalized: r1:TDELIM( - ),TSWAP
#
DISCID=940ab10b
DTITLE=Various Artist - Total R&B Hits
DYEAR=2002
DGENRE=Blues
TTITLE0=Destiny's Child - Bills, Bills, Bills
TTITLE1=Donell Jones - U Know What's Up (Featuring Left Eye)
TTITLE2=TLC - No Scrubs
TTITLE3=Sporty Thievz - No Pigeons
TTITLE4=Missy Elliott - Hot Boyz
TTITLE5=Monica - Angel of Mine
TTITLE6=Ideal - Get Gone
TTITLE7=702 - Where My Girls At
TTITLE8=Blaque - SOS
TTITLE9=R. Kelly - If I Could Turn Back The Hands Of Time
TTITLE10=Mariah Carey - Heartbreaker Featuring Jay-z
EXTD=
EXTT0=
EXTT1=
EXTT2=
EXTT3=
EXTT4=
EXTT5=
EXTT6=
EXTT7=
EXTT8=
EXTT9=
EXTT10=
PLAYORDER=
